<?xml version="1.0" standalone="no"?>
<!DOCTYPE svg PUBLIC "-//W3C//DTD SVG 20010904//EN"
 "http://www.w3.org/TR/2001/REC-SVG-20010904/DTD/svg10.dtd">
<svg version="1.0" xmlns="http://www.w3.org/2000/svg"
 width="640.000000pt" height="640.000000pt" viewBox="0 0 640.000000 640.000000"
 preserveAspectRatio="xMidYMid meet">

<g transform="translate(0.000000,640.000000) scale(0.100000,-0.100000)"
fill="#000000" stroke="none">
<path d="M880 6390 c-8 -5 -12 -12 -9 -15 4 -3 12 1 19 10 14 17 11 19 -10 5z"/>
<path d="M1019 6368 c-7 -18 -17 -36 -21 -39 -5 -3 -10 -17 -11 -30 -1 -13 -8
-34 -15 -46 -6 -12 -9 -28 -6 -36 3 -9 0 -26 -7 -38 -11 -22 -28 -88 -50 -201
-6 -32 -15 -58 -19 -58 -7 0 -16 -38 -40 -176 -6 -33 -10 -112 -9 -175 1 -85
-3 -124 -15 -153 -20 -47 -20 -52 -1 -36 12 10 15 10 15 -1 0 -26 -22 -94 -35
-109 -16 -19 -31 -85 -17 -76 5 3 13 21 16 40 4 19 13 37 22 40 11 4 14 1 9
-12 -3 -11 -8 -57 -10 -103 -6 -96 -21 -179 -35 -193 -13 -13 -13 -39 0 -31 6
3 10 -1 10 -9 0 -9 -7 -16 -15 -16 -9 0 -12 -6 -9 -15 4 -8 11 -12 17 -8 7 4
8 0 3 -13 -5 -10 -10 -64 -12 -119 -3 -68 -10 -112 -23 -140 -21 -47 -61 -217
-61 -259 l0 -30 20 22 c12 12 22 22 23 22 2 0 -2 -25 -7 -56 -8 -41 -12 -50
-16 -33 -3 12 -6 -29 -8 -91 -1 -72 -7 -126 -16 -145 -8 -17 -17 -86 -21 -165
-4 -74 -7 -142 -8 -150 0 -8 2 -28 6 -43 5 -17 4 -26 -1 -23 -11 6 -27 -122
-17 -132 3 -4 10 0 15 8 11 17 10 22 13 -94 2 -76 -1 -90 -15 -94 -19 -5 -28
-33 -27 -82 1 -21 3 -26 6 -14 2 12 12 29 22 38 17 16 19 15 24 -4 3 -11 0
-20 -5 -20 -13 0 -2 -110 12 -124 6 -6 9 -28 8 -51 -1 -37 -2 -37 -5 -7 -5 39
-23 33 -23 -8 0 -16 7 -30 16 -34 12 -5 14 -10 5 -19 -7 -10 -8 -24 -1 -48 6
-19 10 -103 10 -186 1 -84 4 -153 9 -153 5 0 12 -30 16 -67 7 -75 24 -152 35
-168 4 -5 11 -26 15 -45 4 -19 10 -39 13 -45 3 -5 7 -59 9 -120 1 -60 4 -121
5 -135 2 -18 -2 -25 -13 -25 -9 0 -27 -5 -40 -11 -13 -7 -69 -22 -124 -34 -55
-13 -118 -30 -140 -38 -22 -8 -103 -18 -180 -22 -139 -8 -176 -16 -267 -60
l-48 -22 0 -924 0 -924 3200 0 3200 0 0 655 c0 457 -3 655 -11 655 -6 0 -19
-5 -31 -11 -17 -9 -26 -4 -67 38 -66 69 -123 99 -222 118 -46 9 -106 22 -133
30 -26 8 -64 15 -83 15 -21 0 -32 4 -28 10 4 6 15 8 24 5 24 -7 51 4 51 21 0
16 -12 18 -26 4 -7 -7 -15 -2 -24 15 -7 14 -20 25 -28 25 -8 0 -12 6 -8 15 3
8 -1 29 -8 47 -7 18 -11 39 -9 46 3 6 0 12 -6 12 -5 0 -13 -16 -17 -36 -5 -30
-8 -34 -16 -20 -5 10 -7 24 -4 32 3 9 1 12 -4 9 -18 -11 -10 32 11 59 15 18
19 36 16 63 l-4 38 -1 -43 c-1 -30 -6 -42 -14 -40 -17 6 -23 67 -9 81 14 14
14 40 1 32 -6 -3 -19 -23 -31 -43 -23 -43 -23 -41 11 113 12 55 26 104 31 110
5 5 9 19 9 31 0 13 4 26 10 29 6 3 10 16 10 28 0 12 6 29 13 39 11 14 13 11
14 -20 1 -74 8 -130 15 -125 5 2 5 42 2 89 -6 78 -5 85 15 103 11 10 24 34 27
52 4 19 11 42 16 51 5 11 5 18 -1 18 -14 0 -25 -21 -25 -49 -1 -13 -7 -26 -13
-28 -22 -8 -15 62 12 115 14 28 25 56 25 63 0 8 5 21 11 29 8 11 9 6 5 -22 -5
-40 9 -54 17 -15 3 12 2 -5 -1 -38 -5 -67 7 -69 18 -3 4 24 11 51 15 62 7 15
5 17 -13 12 -17 -6 -21 -4 -16 8 3 9 10 16 15 16 5 0 9 8 9 18 0 10 7 42 16
71 12 42 19 51 32 46 9 -3 13 -3 9 1 -4 4 -1 14 6 22 9 13 9 14 0 8 -15 -8
-17 13 -7 63 8 38 24 41 25 4 1 -20 3 -22 5 -8 15 68 28 104 41 109 9 4 11 11
6 18 -12 20 -13 107 -1 114 6 4 8 3 5 -3 -3 -5 -2 -23 2 -39 5 -18 10 -24 13
-14 3 8 15 44 27 80 12 36 24 74 26 85 2 11 8 43 15 70 6 28 11 69 10 93 -1
23 6 55 14 70 23 42 57 120 57 129 0 4 7 15 14 23 13 14 39 79 52 125 3 11 11
34 19 52 8 17 14 40 14 52 0 12 5 21 11 21 7 0 8 -11 4 -30 -4 -19 -3 -30 4
-30 6 0 11 7 11 16 0 8 4 12 10 9 6 -4 10 465 10 1359 l0 1366 -320 0 c-207 0
-320 -4 -320 -10 0 -5 8 -19 18 -29 35 -39 42 -50 42 -67 0 -9 11 -29 25 -43
74 -77 86 -99 99 -178 12 -75 29 -121 48 -134 5 -3 12 -66 14 -140 3 -74 10
-143 15 -154 14 -28 -2 -181 -19 -178 -7 2 -12 -8 -12 -25 0 -22 2 -24 11 -12
8 12 9 11 5 -5 -13 -52 -26 -143 -26 -184 0 -25 -4 -41 -8 -35 -4 7 -8 -20
-10 -60 -3 -89 -57 -514 -66 -523 -3 -4 -12 -1 -18 5 -18 18 -27 15 -38 -13
-9 -24 -12 -25 -66 -19 -47 6 -59 4 -70 -10 -12 -17 -100 -27 -223 -25 -78 1
-120 -11 -152 -43 -21 -21 -40 -31 -59 -30 -16 0 -34 -6 -41 -14 -6 -8 -20
-14 -30 -14 -11 0 -19 -6 -19 -14 0 -8 -7 -17 -16 -20 -12 -5 -15 -2 -11 13 4
18 3 18 -24 2 -16 -9 -29 -20 -29 -26 -1 -5 -12 -19 -26 -30 -47 -37 -134
-124 -134 -134 0 -5 -3 -11 -7 -13 -5 -1 -16 -16 -25 -33 -9 -16 -34 -40 -54
-51 -22 -12 -43 -34 -49 -50 -5 -16 -16 -29 -22 -30 -29 -2 -33 -5 -33 -19 0
-9 -7 -18 -15 -21 -8 -4 -15 -14 -15 -24 0 -10 -7 -31 -15 -46 -8 -16 -15 -37
-15 -46 0 -9 -6 -21 -14 -25 -22 -12 -46 -220 -41 -360 4 -124 22 -193 50
-193 9 0 18 -6 21 -14 3 -8 12 -12 20 -9 8 3 14 0 14 -6 0 -6 12 -11 28 -11
18 0 35 -10 51 -30 13 -17 29 -30 36 -30 7 0 25 -14 39 -31 19 -22 31 -29 46
-24 11 3 19 9 19 13 -1 4 -1 17 0 30 1 19 3 21 20 10 15 -9 23 -9 36 2 9 8 26
15 37 15 11 1 25 9 30 18 12 22 42 22 64 0 13 -13 19 -14 22 -5 2 6 15 12 29
12 14 0 37 9 53 20 15 11 30 17 33 13 10 -10 38 19 33 34 -3 7 0 13 8 13 7 0
19 11 26 25 20 37 43 27 53 -22 6 -31 12 -40 22 -36 10 3 15 -2 15 -16 0 -14
-5 -19 -15 -15 -18 7 -20 -3 -2 -19 19 -18 39 -20 49 -5 10 15 3 -175 -13
-322 -15 -144 -82 -360 -185 -597 -24 -56 -44 -105 -44 -108 0 -10 -121 -262
-151 -315 -8 -14 -22 -34 -31 -45 -9 -11 -29 -43 -43 -70 -15 -28 -40 -67 -56
-87 -16 -20 -29 -42 -29 -47 0 -6 -13 -11 -30 -11 -32 0 -70 -33 -70 -61 0
-12 -6 -16 -19 -12 -13 3 -21 17 -25 44 -3 21 -11 39 -16 39 -6 0 -10 18 -10
40 0 31 4 40 17 40 13 0 14 3 5 12 -7 7 -12 23 -12 36 0 27 -31 64 -38 44 -2
-6 -12 -12 -22 -12 -24 0 -40 68 -19 81 17 10 -37 32 -64 25 -11 -2 -25 4 -35
15 -9 10 -19 19 -23 19 -12 0 4 -52 17 -57 21 -8 17 -41 -6 -53 -15 -8 -20 -8
-20 2 -1 7 -20 29 -44 50 -36 30 -49 36 -84 34 -27 -1 -50 -10 -65 -24 -13
-12 -29 -22 -36 -22 -7 0 -27 -11 -46 -26 -20 -15 -36 -21 -40 -15 -3 6 -20
15 -38 19 -18 5 -31 13 -30 18 2 10 -11 12 -117 14 -75 1 -154 -11 -187 -29
-25 -14 -110 -39 -158 -46 -49 -8 -129 -32 -174 -52 -24 -11 -54 -14 -105 -10
-82 6 -216 -19 -216 -40 0 -7 -7 -13 -15 -13 -28 0 -15 -20 22 -35 23 -10 40
-12 46 -6 13 13 95 -34 138 -80 20 -22 42 -39 50 -39 8 0 19 -15 24 -32 6 -19
20 -37 33 -43 12 -5 22 -15 22 -20 0 -21 25 -65 38 -65 6 0 12 -7 12 -15 0 -8
-4 -15 -10 -15 -5 0 -13 -15 -18 -32 -10 -37 0 -58 29 -58 11 0 19 -4 19 -10
0 -5 8 -10 18 -10 9 0 26 -7 37 -16 13 -10 42 -15 85 -14 101 0 167 -8 199
-25 17 -8 37 -15 45 -15 8 0 16 -4 18 -9 1 -5 12 -10 23 -12 31 -4 96 12 89
22 -3 5 2 6 11 3 14 -6 14 -8 -1 -25 -19 -21 -13 -24 15 -9 13 6 24 5 39 -6
18 -12 22 -25 22 -71 0 -51 -3 -58 -40 -94 -22 -22 -45 -39 -51 -39 -7 0 -9
-10 -5 -25 5 -19 2 -27 -11 -32 -10 -4 -36 -21 -57 -40 -22 -18 -50 -33 -62
-33 -32 0 -54 -10 -54 -25 0 -19 -71 -30 -81 -13 -7 10 -12 11 -29 0 -16 -9
-24 -10 -39 0 -16 10 -25 9 -44 -1 -14 -7 -30 -10 -36 -7 -6 4 -11 2 -11 -3 0
-6 -8 -11 -19 -11 -10 0 -26 -11 -35 -25 -9 -14 -21 -23 -26 -20 -5 3 -26 -2
-47 -11 -38 -16 -183 -28 -193 -15 -8 10 -141 41 -176 41 -17 0 -53 11 -80 25
-27 14 -54 25 -60 25 -13 0 -125 75 -255 172 -119 87 -179 140 -172 150 2 4
-3 5 -11 2 -9 -4 -20 5 -29 23 -9 15 -18 27 -21 26 -17 -8 -38 -1 -58 20 -13
13 -45 41 -73 62 -27 22 -54 45 -58 52 -4 7 -21 19 -36 27 -15 8 -54 43 -87
77 -32 34 -73 76 -89 93 -34 34 -85 101 -85 111 0 8 -63 89 -72 93 -5 2 -8 8
-8 13 0 6 -28 56 -63 112 -35 56 -74 120 -86 141 -25 44 -61 174 -61 221 0 17
-7 41 -16 53 -12 17 -15 48 -14 144 1 68 -1 130 -3 138 -3 8 -8 40 -11 70 -6
64 -36 321 -42 365 -3 17 -7 53 -9 80 -3 28 -7 70 -10 95 -6 62 -14 252 -10
248 2 -2 11 -48 19 -103 9 -55 23 -136 31 -180 8 -44 15 -97 15 -117 0 -21 4
-38 8 -38 9 0 9 19 -4 210 -4 69 -7 129 -6 133 2 5 -2 6 -7 3 -13 -8 -5 704
10 844 5 58 10 117 10 132 -1 15 6 31 14 35 10 6 17 30 20 73 2 36 9 90 14
120 5 30 17 96 26 145 46 265 78 407 98 433 6 7 16 11 24 8 9 -4 13 0 11 12
-2 11 10 23 38 37 23 11 48 25 55 31 8 6 54 10 109 9 90 -2 164 5 203 20 15 6
16 4 7 -19 -12 -33 3 -34 18 -2 16 35 96 88 111 73 8 -8 14 -8 23 1 7 7 23 12
36 12 18 0 23 4 18 17 -8 20 19 46 68 67 20 8 39 22 42 31 3 8 12 15 19 15 8
0 30 15 50 34 20 19 42 33 49 30 7 -3 19 2 26 11 7 8 20 15 29 15 13 0 13 2 2
9 -18 12 -5 31 21 31 22 0 101 77 93 91 -3 4 4 11 16 14 12 4 43 28 70 52 39
38 46 49 37 63 -8 12 -7 23 3 42 8 14 30 56 49 94 42 83 94 137 127 131 12 -2
20 -1 18 4 -3 4 0 11 6 15 6 3 15 1 19 -6 5 -8 13 4 23 33 11 33 12 48 4 56
-8 8 -7 16 6 28 16 16 17 15 18 -22 2 -29 3 -32 6 -14 3 17 12 30 26 34 13 4
17 8 10 12 -18 7 -16 23 2 23 8 0 15 5 15 10 0 15 51 70 66 70 6 0 17 12 23
28 12 31 45 72 58 72 5 0 22 14 38 30 l29 30 -1301 0 -1301 0 -13 -32z m2255
-333 c-4 -8 -8 -15 -10 -15 -2 0 -4 7 -4 15 0 8 4 15 10 15 5 0 7 -7 4 -15z
m-874 -31 c0 -13 -85 -84 -88 -74 -2 6 13 26 34 45 37 33 54 42 54 29z m-177
-149 c-3 -9 -8 -14 -10 -11 -3 3 -2 9 2 15 9 16 15 13 8 -4z m223 -36 c-9 -18
-16 -38 -16 -44 0 -7 -7 -18 -15 -25 -8 -7 -15 -8 -15 -3 0 15 52 114 57 109
3 -3 -2 -19 -11 -37z m-156 -94 c-7 -9 -15 -13 -17 -11 -7 7 7 26 19 26 6 0 6
-6 -2 -15z m101 -37 c-10 -26 -38 -54 -47 -45 -7 7 10 40 32 62 21 21 27 14
15 -17z m-71 -44 c0 -8 -5 -12 -10 -9 -6 4 -8 11 -5 16 9 14 15 11 15 -7z
m-51 -75 c-22 -14 -33 -10 -19 6 7 8 17 12 22 9 6 -4 5 -10 -3 -15z m-9 -279
c0 -11 -24 -22 -72 -34 -16 -3 -28 -2 -28 3 0 12 39 26 62 22 9 -1 19 3 23 9
8 13 15 13 15 0z m-185 -64 c-15 -11 -41 -33 -59 -48 -36 -32 -62 -37 -51 -10
4 9 10 25 12 35 5 14 8 15 21 5 13 -11 15 -10 9 4 -4 12 1 18 23 23 15 3 36
15 46 27 17 18 19 18 22 3 2 -9 -8 -26 -23 -39z m70 -6 c3 -6 -1 -13 -10 -16
-19 -8 -30 0 -20 15 8 14 22 14 30 1z m-950 -140 c8 0 15 -7 15 -15 0 -8 4
-15 9 -15 5 0 7 -8 4 -18 -2 -10 4 -26 15 -35 15 -14 18 -27 14 -67 -5 -56 12
-70 22 -18 6 30 7 31 26 13 17 -15 19 -28 16 -81 -3 -34 -10 -72 -16 -84 -16
-30 -24 -120 -10 -120 5 0 10 8 10 18 0 14 2 15 9 3 8 -12 11 -9 17 12 3 16 8
42 9 60 4 50 5 51 13 43 4 -4 8 -37 9 -73 2 -84 11 -135 24 -127 5 3 7 14 4
24 -9 29 14 34 25 5 13 -33 13 -48 0 -40 -5 3 -10 2 -10 -3 0 -5 9 -12 20 -15
11 -3 20 -12 20 -21 0 -21 16 -20 30 2 9 14 10 11 8 -18 -1 -19 -6 -40 -11
-47 -14 -19 -22 -127 -9 -119 7 4 12 23 12 42 0 19 4 34 9 34 5 0 9 -26 8 -57
-3 -122 3 -234 12 -228 18 11 21 -13 6 -55 -8 -23 -15 -52 -14 -64 1 -23 4
-16 13 26 5 20 11 26 22 21 15 -5 16 -30 10 -242 -4 -130 -9 -251 -12 -270 -3
-19 -2 -31 4 -27 12 7 22 -174 12 -249 -9 -73 -12 -42 -13 122 0 62 -4 110 -8
107 -5 -3 -9 -27 -9 -54 0 -89 -28 -130 -90 -130 -50 0 -58 13 -17 28 49 18
70 62 75 158 5 102 -8 144 -62 199 -48 47 -77 56 -155 45 -43 -5 -60 -13 -82
-38 -16 -18 -31 -44 -35 -59 -17 -80 -21 -72 -45 84 -10 70 -25 162 -33 203
-27 136 -43 340 -27 340 3 0 12 -10 19 -21 19 -31 36 -10 22 27 -11 28 -4 153
9 155 3 0 18 3 34 5 19 3 27 0 27 -10 0 -8 8 -19 17 -24 16 -10 18 -17 26 -93
3 -30 37 -98 94 -194 24 -39 33 -67 33 -98 0 -18 5 -39 10 -47 7 -11 10 5 10
51 0 45 -5 70 -14 78 -7 6 -16 25 -20 42 -3 18 -10 28 -17 24 -7 -5 -8 4 -4
29 4 20 3 36 -1 36 -5 0 -10 36 -11 79 -1 57 2 78 10 75 7 -2 20 10 30 27 12
21 22 29 33 25 13 -5 15 -1 11 26 -3 18 -11 50 -19 71 -11 29 -17 35 -21 23
-8 -20 -80 -21 -135 -3 -27 9 -32 15 -27 32 4 11 9 41 10 67 4 56 23 98 35 78
5 -8 8 -1 7 20 -1 19 3 35 11 37 8 3 12 -1 10 -8 -2 -11 38 -89 46 -89 2 0 -1
83 -4 90 -1 3 -3 14 -3 25 -2 21 -7 25 -33 25 -13 0 -14 -3 -5 -14 9 -11 7
-15 -7 -18 -14 -4 -24 8 -47 56 -16 34 -42 87 -57 120 l-28 58 37 38 c34 34
39 36 45 19 4 -10 14 -19 23 -19z m462 -372 c-3 -8 -6 -5 -6 6 -1 11 2 17 5
13 3 -3 4 -12 1 -19z m4182 -358 c17 -28 18 -37 7 -83 -17 -71 -103 -227 -162
-292 l-36 -40 7 30 c18 75 6 135 -27 135 -10 0 -18 6 -18 14 0 19 -21 25 -41
13 -20 -12 -52 -2 -46 16 2 6 -2 20 -10 29 -31 35 12 88 69 88 10 0 19 -6 19
-12 1 -7 4 0 8 17 4 19 16 35 34 43 15 7 27 21 27 32 0 22 36 36 102 39 44 2
49 -1 67 -29z m-4802 -37 c-3 -10 -5 -2 -5 17 0 19 2 27 5 18 2 -10 2 -26 0
-35z m500 5 c-3 -8 -6 -5 -6 6 -1 11 2 17 5 13 3 -3 4 -12 1 -19z m4001 -10
c-2 -6 -10 -14 -16 -16 -7 -2 -10 2 -6 12 7 18 28 22 22 4z m-4028 -113 l-8
-40 -1 36 c0 20 2 39 6 42 11 11 11 4 3 -38z m3973 -10 c-3 -8 -9 -15 -14 -15
-10 0 -12 24 -3 33 11 11 24 -3 17 -18z m17 -35 c0 -5 -4 -10 -10 -10 -5 0
-10 5 -10 10 0 6 5 10 10 10 6 0 10 -4 10 -10z m93 -190 c8 -25 12 -51 9 -58
-6 -19 -32 -14 -32 7 0 10 -7 21 -15 25 -18 7 -20 57 -3 74 16 16 25 5 41 -48z
m-543 -58 c0 -10 -9 -23 -20 -30 -11 -7 -20 -19 -20 -27 0 -8 -4 -15 -10 -15
-5 0 -10 17 -10 38 0 31 5 41 23 49 26 12 37 8 37 -15z m164 -14 c-8 -28 -12
-33 -20 -25 -9 8 6 47 17 47 6 0 7 -10 3 -22z m116 -23 c7 -8 21 -15 31 -15
14 0 21 -9 26 -31 4 -20 16 -38 34 -48 34 -19 36 -35 9 -76 -11 -16 -20 -39
-20 -50 1 -20 1 -20 15 -1 24 32 28 11 7 -36 -28 -63 -42 -73 -127 -88 -63
-11 -88 -11 -146 0 -73 14 -95 28 -60 37 19 5 23 10 20 30 0 4 20 16 45 28 65
28 133 120 142 192 3 28 3 56 -1 62 -10 17 11 13 25 -4z m270 -15 c0 -5 -4
-10 -10 -10 -5 0 -10 5 -10 10 0 6 5 10 10 10 6 0 10 -4 10 -10z m-637 -62 c6
-4 9 -9 6 -12 -3 -3 -14 0 -24 8 -13 9 -16 19 -10 32 8 18 8 18 13 -1 2 -11 9
-23 15 -27z m507 23 c0 -17 -18 -21 -24 -6 -3 9 0 15 9 15 8 0 15 -4 15 -9z
m-3830 -81 c-6 -37 -8 -40 -9 -13 -1 29 8 68 14 61 1 -2 -1 -23 -5 -48z m3380
4 c0 -8 -7 -14 -15 -14 -8 0 -15 -7 -15 -16 0 -8 -4 -13 -9 -10 -11 7 -2 48
13 58 13 9 26 0 26 -18z m-3650 -20 c17 -15 38 -40 46 -58 13 -26 9 -23 -26
16 -23 26 -49 52 -58 58 -9 5 -12 10 -5 10 6 0 25 -12 43 -26z m3705 -14 c3
-5 1 -10 -4 -10 -6 0 -11 5 -11 10 0 6 2 10 4 10 3 0 8 -4 11 -10z m-3426 -78
c1 -7 -3 -10 -9 -7 -5 3 -10 21 -9 38 1 31 1 31 9 7 4 -14 8 -31 9 -38z m4591
-149 c-11 -17 -11 -17 -6 0 3 10 6 24 7 30 0 9 2 9 5 0 3 -7 0 -20 -6 -30z
m-870 -3 c0 -5 -7 -10 -15 -10 -8 0 -15 5 -15 10 0 6 7 10 15 10 8 0 15 -4 15
-10z m-4132 -12 c16 -16 15 -29 -2 -22 -16 6 -30 34 -18 34 5 0 13 -5 20 -12z
m350 -159 c-3 -20 -5 -19 -9 9 -3 20 -2 29 4 23 5 -5 7 -19 5 -32z m-8 -74 c4
-5 8 -95 8 -200 0 -116 -3 -180 -8 -165 -5 16 -7 -2 -4 -50 4 -59 2 -70 -6
-51 -15 34 -21 199 -8 207 7 5 9 61 5 168 -3 89 -3 148 0 131 3 -16 8 -34 13
-40z m4582 -17 c-8 -8 -9 -4 -5 13 4 13 8 18 11 10 2 -7 -1 -18 -6 -23z m-11
-70 c-3 -21 -6 -26 -9 -15 -3 17 3 47 11 47 2 0 1 -15 -2 -32z m-4510 -224
c12 -121 26 -319 33 -479 5 -118 5 -119 -10 -75 -25 71 -60 680 -38 658 2 -3
9 -49 15 -104z m-904 -246 c-3 -8 -6 -5 -6 6 -1 11 2 17 5 13 3 -3 4 -12 1
-19z m787 -64 c6 -10 15 -22 19 -25 14 -10 -14 -47 -39 -52 -18 -3 -24 4 -38
48 -9 28 -16 62 -16 75 l0 23 32 -25 c18 -14 37 -33 42 -44z m-99 -1 c3 -16
10 -40 14 -55 10 -32 -3 -48 -17 -21 -13 26 -22 103 -11 103 5 0 11 -12 14
-27z m192 -55 c-3 -7 -5 -2 -5 12 0 14 2 19 5 13 2 -7 2 -19 0 -25z m-24 -13
c20 -15 42 -90 31 -107 -4 -7 -9 -6 -14 2 -11 18 -32 2 -25 -20 6 -17 -28 -60
-47 -60 -13 0 -35 53 -41 101 -6 45 -5 48 31 72 44 30 42 30 65 12z m-125
-101 c2 -16 8 -32 14 -35 5 -4 8 -15 6 -25 -4 -16 -6 -15 -16 8 -6 14 -16 29
-21 33 -6 3 -11 18 -11 31 0 36 24 25 28 -12z m-599 -270 c17 -33 32 -72 33
-85 3 -21 -2 -24 -33 -27 -44 -4 -49 8 -49 118 0 83 4 83 49 -6z m893 -9 c5
-39 -7 -34 -17 8 -4 16 -3 27 3 27 5 0 12 -16 14 -35z m3101 -545 c-3 -11 -7
-20 -9 -20 -2 0 -4 9 -4 20 0 11 4 20 9 20 5 0 7 -9 4 -20z m-2804 -40 c10 -5
24 -22 30 -38 7 -15 25 -36 41 -45 16 -10 41 -35 56 -55 15 -21 42 -49 61 -62
18 -14 38 -37 45 -52 7 -16 19 -28 25 -28 7 0 13 -4 13 -10 0 -15 -52 8 -67
30 -8 11 -20 20 -28 20 -7 0 -23 11 -33 25 -11 14 -23 21 -26 16 -4 -5 -2 -12
4 -16 5 -3 10 -13 10 -21 0 -21 -38 5 -42 29 -2 10 -7 19 -13 19 -5 1 -22 21
-37 44 -14 23 -31 45 -37 48 -20 13 -12 27 12 22 12 -3 16 -3 10 0 -7 3 -13
10 -13 16 0 5 -9 23 -21 39 -22 31 -19 35 10 19z m2070 -73 c18 -22 -21 -52
-48 -37 -24 12 -26 21 -9 38 16 16 43 15 57 -1z m-48 -236 c28 -22 24 -28 -19
-37 -36 -7 -53 15 -32 41 16 19 23 19 51 -4z"/>
<path d="M1197 4933 c-4 -3 -7 -11 -7 -17 0 -6 5 -5 12 2 6 6 9 14 7 17 -3 3
-9 2 -12 -2z"/>
<path d="M1200 4890 c-8 -16 -8 -18 4 -14 17 6 30 34 16 34 -5 0 -14 -9 -20
-20z"/>
<path d="M1300 4619 c0 -11 5 -17 10 -14 6 3 10 13 10 21 0 8 -4 14 -10 14 -5
0 -10 -9 -10 -21z"/>
<path d="M1370 4536 c0 -8 4 -17 9 -20 5 -4 7 3 4 14 -6 23 -13 26 -13 6z"/>
<path d="M1150 4393 c0 -5 5 -15 10 -23 8 -12 10 -11 10 8 0 12 -4 22 -10 22
-5 0 -10 -3 -10 -7z"/>
<path d="M1410 4373 c0 -4 5 -15 10 -23 8 -13 10 -13 10 2 0 9 -4 20 -10 23
-5 3 -10 3 -10 -2z"/>
<path d="M1442 4225 c0 -16 2 -22 5 -12 2 9 2 23 0 30 -3 6 -5 -1 -5 -18z"/>
<path d="M5370 3610 c0 -5 5 -10 10 -10 6 0 10 -5 10 -11 0 -8 -4 -8 -14 0
-11 9 -20 9 -35 2 -11 -6 -38 -11 -60 -11 -54 0 -145 -20 -134 -30 4 -4 53 -4
108 1 55 6 107 10 115 11 29 2 44 58 15 58 -8 0 -15 -4 -15 -10z"/>
<path d="M2130 1440 c0 -21 17 -46 25 -38 4 4 0 17 -9 30 -10 14 -16 17 -16 8z"/>
<path d="M3170 5850 c0 -5 5 -10 10 -10 6 0 10 5 10 10 0 6 -4 10 -10 10 -5 0
-10 -4 -10 -10z"/>
<path d="M791 5314 c0 -11 3 -14 6 -6 3 7 2 16 -1 19 -3 4 -6 -2 -5 -13z"/>
<path d="M2570 5184 c0 -16 28 -44 44 -44 21 0 49 26 44 41 -6 18 -88 21 -88
3z"/>
<path d="M2958 5183 c6 -2 18 -2 25 0 6 3 1 5 -13 5 -14 0 -19 -2 -12 -5z"/>
<path d="M2855 5163 c-39 -6 -57 -23 -24 -23 14 0 34 7 45 15 10 8 17 14 14
13 -3 0 -18 -3 -35 -5z"/>
<path d="M3168 5149 c-4 -11 -190 -15 -208 -4 -6 4 -22 3 -33 -3 -40 -18 -112
-36 -134 -34 -13 2 -23 -2 -23 -7 0 -5 -9 -13 -21 -16 -12 -4 -18 -12 -15 -21
3 -7 1 -16 -4 -19 -6 -4 -10 -11 -10 -17 0 -6 7 -5 18 4 9 9 28 18 42 20 14 3
32 7 40 9 8 2 14 -1 13 -7 -1 -7 43 -11 141 -10 92 1 148 -3 157 -10 8 -6 43
-21 79 -34 56 -19 152 -63 228 -105 26 -14 77 -58 89 -77 23 -37 107 -97 145
-103 28 -5 42 -13 45 -26 3 -10 10 -20 17 -21 6 0 16 -2 21 -3 34 -5 84 -28
89 -41 5 -12 17 -15 49 -12 23 3 49 6 57 9 9 2 21 -10 33 -33 21 -43 39 -48
62 -15 12 17 17 19 24 9 4 -8 12 -13 17 -13 5 1 9 -4 9 -11 0 -6 5 -13 12 -15
19 -7 29 67 20 142 -12 96 -29 121 -42 63 l-7 -33 -19 43 c-17 36 -24 42 -49
42 -17 0 -30 4 -30 9 0 5 -10 11 -22 13 -27 4 -37 28 -11 28 13 0 10 4 -11 15
-16 9 -34 14 -40 11 -6 -2 -3 -5 7 -5 9 -1 17 -5 17 -11 0 -16 -15 -12 -40 10
-26 23 -40 26 -40 8 0 -6 -7 -4 -18 5 -10 10 -31 17 -46 17 -21 0 -27 4 -22
15 4 12 -3 15 -35 15 -22 0 -58 9 -79 20 -22 11 -40 17 -40 13 0 -4 -5 -2 -12
5 -7 7 -20 12 -30 12 -21 0 -24 16 -5 23 18 8 -10 25 -55 32 -21 4 -44 16 -52
27 -10 13 -19 17 -28 12 -23 -15 -76 -14 -82 2 -3 8 -20 14 -43 15 l-38 1 37
12 c61 19 57 29 -9 24 -35 -2 -63 -1 -63 4 0 4 9 8 19 8 11 0 22 4 25 8 3 5
-17 9 -44 10 -27 0 -50 -3 -52 -9z m-2 -48 c-3 -5 -15 -7 -26 -4 -28 7 -25 13
6 13 14 0 23 -4 20 -9z m149 -91 c3 -5 1 -10 -4 -10 -6 0 -11 5 -11 10 0 6 2
10 4 10 3 0 8 -4 11 -10z m368 -224 c18 0 25 -16 7 -16 -5 0 -10 -10 -11 -22
l0 -23 -9 23 c-5 12 -16 22 -25 22 -8 0 -15 7 -15 16 0 12 5 14 18 9 9 -5 25
-8 35 -9z m305 -22 c-4 -3 -12 5 -18 18 -12 22 -12 22 6 6 10 -10 15 -20 12
-24z m-248 -14 c0 -5 -4 -10 -10 -10 -5 0 -10 5 -10 10 0 6 5 10 10 10 6 0 10
-4 10 -10z"/>
<path d="M2642 5008 c-21 -21 -13 -27 18 -12 17 9 30 17 30 20 0 9 -37 3 -48
-8z"/>
<path d="M2550 4969 c0 -6 -9 -8 -20 -4 -12 4 -26 2 -33 -3 -7 -5 -27 -13 -44
-17 -18 -3 -33 -11 -33 -16 0 -12 17 -12 25 1 3 6 29 10 56 10 53 0 93 15 84
31 -8 12 -35 12 -35 -2z"/>
<path d="M2600 4786 c0 -40 73 -48 78 -8 3 20 -1 22 -37 22 -28 0 -41 -4 -41
-14z"/>
<path d="M3670 4549 c0 -5 5 -7 10 -4 6 3 10 8 10 11 0 2 -4 4 -10 4 -5 0 -10
-5 -10 -11z"/>
<path d="M3732 4538 c7 -19 38 -22 38 -4 0 10 -9 16 -21 16 -12 0 -19 -5 -17
-12z"/>
<path d="M2995 4494 c-38 -8 -90 -24 -115 -36 -24 -11 -55 -24 -68 -29 -30
-12 -92 -59 -92 -70 0 -16 24 -10 89 22 34 17 71 29 82 26 10 -3 17 0 16 6 -3
15 58 44 123 58 76 16 296 5 384 -20 82 -23 103 -40 87 -69 -6 -11 -11 -30
-11 -42 0 -24 -26 -38 -42 -22 -6 6 -25 8 -44 5 -44 -7 -84 4 -84 23 0 12 -6
15 -22 11 -28 -8 -48 9 -48 41 0 36 -13 19 -14 -19 -1 -40 -27 -59 -56 -42
-15 10 -21 10 -27 -1 -4 -7 -33 -16 -64 -19 -46 -6 -58 -4 -63 9 -8 20 -26 8
-26 -17 0 -22 -3 -23 -47 -7 -18 7 -33 18 -33 26 0 7 -5 10 -10 7 -6 -4 -8
-21 -4 -42 6 -33 5 -35 -16 -28 -19 6 -22 4 -17 -9 5 -13 0 -16 -28 -16 -19 0
-35 -4 -35 -9 0 -5 -9 -11 -21 -14 -12 -3 -18 -10 -14 -16 16 -28 -22 -7 -56
30 -32 35 -38 38 -47 23 -8 -15 -10 -15 -24 5 -8 11 -18 18 -21 14 -13 -12 -7
-41 10 -59 13 -13 14 -19 5 -22 -17 -5 -15 -23 6 -38 14 -12 15 -15 3 -23 -12
-8 -9 -11 12 -16 15 -4 38 -4 51 -1 19 5 29 0 45 -22 19 -25 20 -25 16 -4 -2
14 1 22 9 22 8 0 19 7 26 15 18 22 40 18 40 -6 0 -11 5 -17 10 -14 6 3 10 14
10 25 0 24 79 70 132 77 l39 6 -7 -52 c-8 -65 7 -123 51 -183 49 -67 115 -103
186 -102 141 2 238 115 227 265 -2 32 -1 59 2 59 3 0 15 -7 26 -15 10 -8 25
-15 33 -15 14 0 65 -38 112 -84 28 -27 40 -76 19 -76 -5 0 -10 -9 -10 -19 0
-11 -5 -23 -11 -26 -5 -4 -14 -18 -19 -31 -6 -14 -26 -34 -45 -45 -20 -12 -40
-29 -45 -39 -8 -14 -5 -16 15 -12 28 5 32 -3 11 -24 -8 -7 -16 -19 -19 -26 -3
-10 -9 -10 -27 0 -15 9 -26 10 -33 3 -5 -5 -23 -7 -38 -4 -16 3 -35 0 -43 -6
-7 -6 -21 -8 -30 -5 -12 5 -19 0 -23 -15 -4 -17 -8 -19 -19 -10 -7 6 -17 8
-23 5 -5 -3 -11 -1 -13 6 -2 6 -12 9 -21 5 -23 -9 -24 -77 -1 -77 8 0 12 4 9
10 -3 5 -2 18 4 27 9 17 10 17 16 0 8 -19 -10 -47 -30 -47 -14 0 -30 -64 -20
-80 3 -6 22 -10 41 -10 20 0 43 -7 52 -16 13 -14 30 -16 94 -11 43 3 86 11 95
18 8 7 23 14 32 14 23 2 101 37 101 46 0 10 54 35 93 43 15 4 27 11 27 17 0
12 69 79 79 76 3 -1 7 2 8 8 1 5 11 12 22 16 15 6 19 15 17 36 -5 39 -5 40
-16 23 -6 -9 -10 -10 -10 -3 0 16 28 43 46 43 8 0 14 7 14 15 0 8 9 32 20 52
11 21 20 46 20 56 0 10 7 32 16 49 17 34 12 78 -10 78 -12 0 -13 7 -6 31 10
35 0 63 -32 89 -18 14 -37 43 -56 85 -5 11 -32 43 -59 72 -27 28 -47 56 -45
62 2 7 -7 9 -27 5 -20 -4 -31 -2 -31 5 0 13 -56 15 -64 2 -3 -5 1 -14 10 -21
8 -7 13 -19 10 -26 -3 -8 4 -19 15 -25 28 -14 15 -25 -14 -12 -97 46 -140 63
-189 74 -51 11 -60 10 -76 -4 -10 -10 -21 -15 -24 -12 -6 6 -287 35 -333 34
-16 0 -61 -7 -100 -15z m795 -18 c0 -2 -7 -6 -15 -10 -8 -3 -15 -1 -15 4 0 6
7 10 15 10 8 0 15 -2 15 -4z m-514 -228 c3 -4 12 -4 22 -1 30 10 1 -13 -52
-42 -41 -23 -53 -26 -69 -16 -16 10 -19 9 -24 -8 -3 -12 -9 -21 -13 -21 -13 0
-19 -41 -10 -63 8 -20 9 -20 9 6 1 15 6 27 12 27 7 0 8 -11 4 -31 -5 -22 -3
-34 6 -40 11 -7 12 -12 2 -29 -18 -28 -16 -39 7 -33 11 3 20 1 20 -5 0 -7 10
-8 30 -2 17 5 31 6 31 2 7 -45 7 -72 -1 -72 -6 0 -10 5 -10 11 0 6 -8 8 -19 4
-11 -3 -22 -1 -26 5 -3 5 -13 10 -21 10 -23 0 -74 42 -91 73 -21 42 -26 126
-9 162 18 37 47 62 78 68 36 7 119 3 124 -5z m150 -165 c-10 -10 -19 5 -10 18
6 11 8 11 12 0 2 -7 1 -15 -2 -18z m-6 -73 c-6 -11 -13 -20 -15 -20 -3 0 -5 9
-5 20 0 11 7 20 15 20 13 0 14 -4 5 -20z m-87 -27 c3 -16 3 -32 -1 -37 -6 -11
-20 20 -21 47 -1 28 16 20 22 -10z m417 13 c0 -3 -4 -8 -10 -11 -5 -3 -10 -1
-10 4 0 6 5 11 10 11 6 0 10 -2 10 -4z m40 -80 c0 -2 -7 -6 -15 -10 -8 -3 -15
-1 -15 4 0 6 7 10 15 10 8 0 15 -2 15 -4z m78 -81 c1 -24 -3 -35 -13 -35 -9 0
-13 11 -13 33 1 60 24 62 26 2z m-468 -125 c0 -5 -4 -10 -10 -10 -5 0 -10 5
-10 10 0 6 5 10 10 10 6 0 10 -4 10 -10z m-100 -74 c0 -3 -4 -8 -10 -11 -5 -3
-10 -1 -10 4 0 6 5 11 10 11 6 0 10 -2 10 -4z"/>
<path d="M611 4284 c0 -11 3 -14 6 -6 3 7 2 16 -1 19 -3 4 -6 -2 -5 -13z"/>
<path d="M2740 4285 c-7 -8 -8 -15 -2 -15 5 0 15 7 22 15 7 8 8 15 2 15 -5 0
-15 -7 -22 -15z"/>
<path d="M671 4154 c0 -11 3 -14 6 -6 3 7 2 16 -1 19 -3 4 -6 -2 -5 -13z"/>
<path d="M597 3963 c-3 -32 -8 -107 -11 -168 -4 -85 -3 -100 4 -65 11 50 25
290 18 290 -3 0 -8 -26 -11 -57z"/>
<path d="M2812 3990 c-12 -12 -22 -26 -22 -33 0 -6 12 1 27 15 32 32 27 47 -5
18z"/>
<path d="M3082 3785 l-12 -26 25 18 c27 20 32 33 12 33 -8 0 -19 -11 -25 -25z"/>
<path d="M3130 3775 c-10 -12 -10 -15 4 -15 9 0 16 7 16 15 0 8 -2 15 -4 15
-2 0 -9 -7 -16 -15z"/>
<path d="M3200 3764 c-17 -9 -20 -14 -9 -14 9 0 20 -8 24 -17 6 -16 8 -15 20
7 25 44 14 51 -35 24z"/>
<path d="M612 3710 c0 -14 2 -19 5 -12 2 6 2 18 0 25 -3 6 -5 1 -5 -13z"/>
<path d="M582 3640 c0 -14 2 -19 5 -12 2 6 2 18 0 25 -3 6 -5 1 -5 -13z"/>
<path d="M593 3595 c-10 -10 -9 -16 2 -25 13 -10 15 -8 15 14 0 30 -1 30 -17
11z"/>
<path d="M6392 3575 c0 -16 2 -22 5 -12 2 9 2 23 0 30 -3 6 -5 -1 -5 -18z"/>
<path d="M6332 3550 c0 -14 2 -19 5 -12 2 6 2 18 0 25 -3 6 -5 1 -5 -13z"/>
<path d="M646 3504 c-3 -9 -3 -20 0 -25 9 -15 -5 -61 -17 -53 -7 4 -9 -6 -7
-27 2 -18 9 -34 16 -37 9 -3 11 3 6 22 -5 20 -3 25 7 21 11 -4 14 9 16 55 1
58 -8 78 -21 44z"/>
<path d="M6381 3504 c0 -11 3 -14 6 -6 3 7 2 16 -1 19 -3 4 -6 -2 -5 -13z"/>
<path d="M612 3470 c0 -19 2 -27 5 -17 2 9 2 25 0 35 -3 9 -5 1 -5 -18z"/>
<path d="M5346 3351 c-5 -7 -3 -18 3 -24 14 -14 20 -6 11 17 -5 15 -9 16 -14
7z"/>
<path d="M6256 3103 c-6 -14 -5 -15 5 -6 7 7 10 15 7 18 -3 3 -9 -2 -12 -12z"/>
<path d="M6181 3007 c-13 -21 -12 -21 5 -5 10 10 16 20 13 22 -3 3 -11 -5 -18
-17z"/>
<path d="M672 2930 c0 -14 2 -19 5 -12 2 6 2 18 0 25 -3 6 -5 1 -5 -13z"/>
<path d="M3976 2874 c-13 -13 -15 -19 -6 -22 6 -2 16 0 22 6 6 6 8 16 6 22 -3
9 -9 7 -22 -6z"/>
<path d="M4805 2621 c-6 -11 9 -23 19 -14 9 9 7 23 -3 23 -6 0 -12 -4 -16 -9z"/>
<path d="M4791 2564 c0 -11 3 -14 6 -6 3 7 2 16 -1 19 -3 4 -6 -2 -5 -13z"/>
<path d="M701 2478 c1 -72 5 -68 12 10 2 28 0 52 -4 52 -5 0 -9 -28 -8 -62z"/>
<path d="M5970 2519 c0 -5 5 -7 10 -4 6 3 10 8 10 11 0 2 -4 4 -10 4 -5 0 -10
-5 -10 -11z"/>
<path d="M3897 2512 l-29 -7 25 -23 c15 -15 42 -26 69 -29 23 -2 53 -9 66 -16
18 -8 25 -7 35 6 9 12 22 15 55 10 23 -3 42 -10 42 -14 0 -5 18 -9 40 -9 22 0
40 4 40 9 0 42 -252 95 -343 73z"/>
<path d="M4685 2500 c-16 -10 -34 -22 -40 -27 -41 -34 -75 -47 -125 -48 -119
-3 -120 -3 -120 -27 0 -17 3 -19 12 -10 7 7 35 11 63 11 27 -1 40 -4 28 -6
-13 -2 -23 -8 -23 -12 0 -7 -123 -35 -157 -36 -6 0 -15 -3 -19 -7 -4 -4 -18
-5 -30 -2 -15 4 -24 2 -24 -5 0 -6 -7 -11 -15 -11 -13 0 -13 -3 -3 -20 13 -21
52 -27 63 -10 3 6 30 10 58 9 37 -1 45 -3 28 -8 -14 -4 -26 -12 -29 -19 -3
-11 1 -14 31 -16 20 -2 37 -23 43 -56 6 -27 8 -28 19 -13 11 15 14 15 35 -5
29 -27 47 -28 55 -2 3 11 11 20 16 20 5 0 9 9 9 20 0 11 4 20 10 20 5 0 8 6 6
13 -13 42 -15 67 -5 67 6 0 19 10 30 23 l18 22 -2 -39 c-1 -24 3 -41 11 -43 8
-3 12 6 12 26 0 24 4 31 20 31 11 0 20 -4 20 -10 0 -5 9 -10 20 -10 12 0 20
-7 20 -16 0 -14 3 -14 15 -4 9 8 15 30 15 56 0 32 -4 44 -15 44 -21 0 -19 20
3 20 9 1 28 10 41 21 24 19 24 21 9 47 -21 34 -61 38 -103 12z"/>
<path d="M5922 2280 c0 -14 2 -19 5 -12 2 6 2 18 0 25 -3 6 -5 1 -5 -13z"/>
<path d="M4206 2220 c-7 -43 -23 -78 -44 -95 -15 -13 -32 -69 -23 -82 3 -5 14
-12 23 -16 20 -7 28 11 28 60 0 20 8 50 19 67 24 41 35 106 17 106 -8 0 -16
-17 -20 -40z"/>
<path d="M5850 2155 c0 -8 5 -15 10 -15 6 0 10 7 10 15 0 8 -4 15 -10 15 -5 0
-10 -7 -10 -15z"/>
<path d="M5776 2051 c-4 -7 -5 -15 -2 -18 9 -9 19 4 14 18 -4 11 -6 11 -12 0z"/>
<path d="M4467 2014 c-3 -6 -4 -20 -1 -31 5 -18 9 -19 30 -9 29 13 31 26 5 26
-11 0 -21 5 -23 12 -3 8 -7 8 -11 2z"/>
<path d="M5840 1994 c0 -8 5 -12 10 -9 6 4 8 11 5 16 -9 14 -15 11 -15 -7z"/>
<path d="M4598 1993 c7 -3 16 -2 19 1 4 3 -2 6 -13 5 -11 0 -14 -3 -6 -6z"/>
<path d="M5806 1964 c-3 -9 -6 -28 -5 -42 l1 -27 13 30 c8 17 14 36 15 43 0
17 -17 15 -24 -4z"/>
<path d="M5746 1905 c-3 -8 -1 -15 3 -15 5 0 11 7 15 15 3 8 1 15 -3 15 -5 0
-11 -7 -15 -15z"/>
<path d="M5780 1879 c0 -5 5 -7 10 -4 6 3 10 8 10 11 0 2 -4 4 -10 4 -5 0 -10
-5 -10 -11z"/>
<path d="M4947 1833 c-13 -13 -7 -51 11 -64 9 -7 14 -10 10 -5 -4 5 -3 17 2
27 15 28 -4 62 -23 42z"/>
<path d="M4910 1725 c0 -18 -20 -20 -21 -2 0 6 -4 3 -9 -8 -12 -32 7 -41 29
-14 23 27 26 39 11 39 -5 0 -10 -7 -10 -15z"/>
<path d="M4096 1063 c-11 -11 -6 -23 9 -23 8 0 15 4 15 9 0 13 -16 22 -24 14z"/>
</g>
</svg>
